<?xml version="1.0" encoding="utf-8"?>
<!-- Generator: Adobe Illustrator 19.2.1, SVG Export Plug-In . SVG Version: 6.00 Build 0)  -->
<svg version="1.1" id="レイヤー_1" xmlns="http://www.w3.org/2000/svg" xmlns:xlink="http://www.w3.org/1999/xlink" x="0px"
	 y="0px" viewBox="0 0 750 623.1" style="enable-background:new 0 0 750 623.1;" xml:space="preserve">
<style type="text/css">
	.st0{fill:#E98B39;}
</style>
<path class="st0" d="M739.4,103.9H10.6C4.7,103.9,0,99,0,93.3V10.6C0,4.7,4.9,0,10.6,0h728.8c5.9,0,10.6,4.9,10.6,10.6v82.7
	C750.1,99.2,745.4,103.9,739.4,103.9z"/>
<path class="st0" d="M739.4,363.6H10.6C4.7,363.6,0,358.7,0,353v-82.7c0-5.9,4.9-10.6,10.6-10.6h728.8c5.9,0,10.6,4.9,10.6,10.6V353
	C750.1,358.7,745.4,363.6,739.4,363.6z"/>
<path class="st0" d="M739.4,623.1H10.6c-5.9,0-10.6-4.9-10.6-10.6v-82.7c0-5.9,4.9-10.6,10.6-10.6h728.8c5.9,0,10.6,4.9,10.6,10.6
	v82.7C750.1,618.4,745.4,623.1,739.4,623.1z"/>
</svg>
