<?xml version="1.0" encoding="utf-8"?>
<!-- Generator: Adobe Illustrator 18.1.1, SVG Export Plug-In . SVG Version: 6.00 Build 0)  -->
<svg version="1.1" id="レイヤー_1" xmlns="http://www.w3.org/2000/svg" xmlns:xlink="http://www.w3.org/1999/xlink" x="0px"
	 y="0px" viewBox="71.6 618.9 750 623" enable-background="new 71.6 618.9 750 623" xml:space="preserve">
<path fill="#27AE60" d="M811,722.7H82.2c-5.9,0-10.6-4.9-10.6-10.6v-82.7c0-5.9,4.9-10.6,10.6-10.6H811c5.9,0,10.6,4.9,10.6,10.6
	v82.7C821.7,718,817,722.7,811,722.7z"/>
<path fill="#27AE60" d="M811,982.4H82.2c-5.9,0-10.6-4.9-10.6-10.6v-82.7c0-5.9,4.9-10.6,10.6-10.6H811c5.9,0,10.6,4.9,10.6,10.6
	v82.7C821.7,977.5,817,982.4,811,982.4z"/>
<path fill="#27AE60" d="M811,1241.9H82.2c-5.9,0-10.6-4.9-10.6-10.6v-82.7c0-5.9,4.9-10.6,10.6-10.6H811c5.9,0,10.6,4.9,10.6,10.6
	v82.7C821.7,1237.2,817,1241.9,811,1241.9z"/>
</svg>
