<?xml version="1.0" encoding="utf-8"?>
<!-- Generator: Adobe Illustrator 19.2.1, SVG Export Plug-In . SVG Version: 6.00 Build 0)  -->
<svg version="1.1" id="レイヤー_1" xmlns="http://www.w3.org/2000/svg" xmlns:xlink="http://www.w3.org/1999/xlink" x="0px"
	 y="0px" viewBox="0 0 836.9 166.6" style="enable-background:new 0 0 836.9 166.6;" xml:space="preserve">
<style type="text/css">
	.st0{fill:#E98B39;}
</style>
<g>
	<path class="st0" d="M196.1,57.7c-3.2-1.8-8.6-3.8-13.9-3.8c-5.2,0-7.9,2.2-7.9,5.6c0,3.1,2.2,4.9,10.6,8.4
		c13.1,5.4,18,13.2,18.1,22.8c0,15.4-11.8,24.4-30.7,24.4c-8.4,0-16.8-2-21.6-4.9l4-16.8c3.8,2.2,11.4,4.9,17.4,4.9
		c5.9,0,8.7-2,8.7-5.6s-2.1-5.4-9.8-8.6c-14.4-6-18.8-14.4-18.8-22.1c0-14.1,11.2-24.8,28.8-24.8c7.8,0,14.4,1.9,18.9,4L196.1,57.7z
		"/>
	<path class="st0" d="M236.1,48.2c4.4-6.9,11.8-10.9,20.8-10.9c16.6,0,27.9,16,27.9,38.4c0,27.4-15.3,39.6-30,39.6
		c-7.6,0-13.3-3.4-16-7.6h-0.4v36h-23.5V63.6c0-9.3-0.2-17.6-0.6-24.8h20.3l1.2,9.4h0.2v0H236.1z M238.3,83.7
		c0,7.6,4.2,13.2,10.2,13.2c8.2,0,12.4-8.7,12.4-20.4c0-12.6-4.2-20.2-12.1-20.2c-5.4,0-10.6,4.9-10.6,12.9v14.5H238.3z"/>
	<path class="st0" d="M355.7,111.1c-6.9,2.8-15.9,4.1-24.8,4.1c-23.6,0-36.9-14.1-36.9-37.6c0-21.4,12.6-40.2,34.9-40.2
		c17.9,0,30.6,12,30.6,37.4c0,3.6-0.1,7.3-0.7,9.9h-42.4c0.6,8.9,8.6,13.1,18.2,13.1c6.8,0,12.7-1.2,18-2.9L355.7,111.1z M338,68.5
		c0-6.7-2.1-15.1-10.2-15.1c-8,0-11.1,8.8-11.4,15.1H338z"/>
	<path class="st0" d="M430.2,111.1c-6.9,2.8-15.9,4.1-24.8,4.1c-23.6,0-36.9-14.1-36.9-37.6c0-21.4,12.6-40.2,34.9-40.2
		c17.9,0,30.6,12,30.6,37.4c0,3.6-0.1,7.3-0.7,9.9h-42.4c0.6,8.9,8.6,13.1,18.2,13.1c6.8,0,12.7-1.2,18-2.9L430.2,111.1z
		 M412.4,68.5c0-6.7-2.1-15.1-10.2-15.1c-8,0-11.1,8.8-11.4,15.1H412.4z"/>
	<path class="st0" d="M512.7,90.9c0,8.2,0.2,16.9,0.6,22.9h-20.6l-1.1-9.8h-0.4c-4,7.1-11.8,11.2-19.8,11.2
		c-17.2,0-28.4-16.6-28.4-38.7c0-25.4,13.9-39.3,29.4-39.3c8,0,13.8,3.2,16.2,7.8h0.4V6.3h23.4v84.6H512.7z M489.1,69.4
		C489.1,59,483,56,479,56c-8.6,0-12.4,9.3-12.4,20.7c0,12.9,5.1,19.8,12.2,19.8c4.4,0,10.2-2.8,10.2-13.1L489.1,69.4L489.1,69.4
		L489.1,69.4z"/>
	<path class="st0" d="M594.7,38.7c-0.2,5.9-0.7,12.9-0.7,23.2V104c0,18.8-4.4,41.1-38.9,41.1c-8.8,0-17.4-1.6-23.8-4.7l4.2-17.9
		c4.4,2.2,11.2,4.4,18.7,4.4c10.2,0,16.6-6.1,16.6-18v-4.1h-0.2c-3.8,5.3-10,8.2-16.9,8.2c-18,0-28.2-16.7-28.2-36.4
		c0-24.1,13.6-39.4,30.4-39.4c8,0,13.9,3.6,17.3,9.6h0.2l1.1-8.1L594.7,38.7L594.7,38.7z M570.4,68.2c0-8.4-4.6-12.4-9.4-12.4
		c-7.3,0-12.1,8.2-12.1,20.6c0,11.8,4.6,19.2,11.9,19.2c5.1,0,9.8-3.3,9.8-12.8V68.2H570.4z"/>
	<path class="st0" d="M676.2,75.9c0,29.2-18.8,39.4-35.2,39.4c-20.8,0-35.1-14.4-35.1-38.6c0-25.2,15.2-39.4,35.9-39.4
		C663.3,37.3,676.2,53.3,676.2,75.9z M641.3,54.4c-8.8,0-11.6,11.4-11.6,21.9c0,12.6,3.6,22,11.6,22c7.6,0,11.2-10,11.2-22
		C652.4,65.2,649.3,54.4,641.3,54.4z"/>
	<path class="st0" d="M755.3,38.7c-0.2,5.9-0.7,12.9-0.7,23.2V104c0,18.8-4.4,41.1-38.9,41.1c-8.8,0-17.4-1.6-23.8-4.7l4.2-17.9
		c4.4,2.2,11.2,4.4,18.7,4.4c10.2,0,16.6-6.1,16.6-18v-4.1h-0.2c-3.8,5.3-10,8.2-16.9,8.2c-18,0-28.2-16.7-28.2-36.4
		c0-24.1,13.6-39.4,30.4-39.4c8,0,13.9,3.6,17.3,9.6h0.2l1.1-8.1L755.3,38.7L755.3,38.7z M731.1,68.2c0-8.4-4.6-12.4-9.4-12.4
		c-7.3,0-12.1,8.2-12.1,20.6c0,11.8,4.6,19.2,11.9,19.2c5.1,0,9.8-3.3,9.8-12.8V68.2H731.1z"/>
	<path class="st0" d="M836.9,75.9c0,29.2-18.8,39.4-35.2,39.4c-20.8,0-35.1-14.4-35.1-38.6c0-25.2,15.2-39.4,35.9-39.4
		C824,37.3,836.9,53.3,836.9,75.9z M802,54.4c-8.8,0-11.6,11.4-11.6,21.9c0,12.6,3.6,22,11.6,22c7.6,0,11.2-10,11.2-22
		C813.1,65.2,810,54.4,802,54.4z"/>
</g>
<path id="location-2-icon" class="st0" d="M52.8,16.2c20.2,0,36.6,16.4,36.6,36.6c0,23.2-24.2,61.2-36.6,82
	C32,99.7,16.2,72.9,16.2,52.8C16.2,32.5,32.7,16.2,52.8,16.2 M52.8,0C23.7,0,0,23.7,0,52.8s23.1,63,52.8,113.8
	c29.7-50.8,52.8-84.7,52.8-113.8C105.6,23.6,81.9,0,52.8,0L52.8,0z M52.8,33.9c-10.1,0-18.3,8.2-18.3,18.3s8.2,18.3,18.3,18.3
	s18.3-8.2,18.3-18.3S62.9,33.9,52.8,33.9L52.8,33.9z"/>
</svg>
