<?xml version="1.0" encoding="utf-8"?>
<!-- Generator: Adobe Illustrator 18.1.1, SVG Export Plug-In . SVG Version: 6.00 Build 0)  -->
<svg version="1.1" id="レイヤー_1" xmlns="http://www.w3.org/2000/svg" xmlns:xlink="http://www.w3.org/1999/xlink" x="0px"
	 y="0px" viewBox="-53.4 708.9 839.9 171" enable-background="new -53.4 708.9 839.9 171" xml:space="preserve">
<g>
	<path fill="#27AE60" d="M144.2,768.1c-3.2-1.8-8.6-3.8-13.9-3.8c-5.2,0-7.9,2.2-7.9,5.6c0,3.1,2.2,4.9,10.6,8.4
		c13.1,5.4,18,13.2,18.1,22.8c0,15.4-11.8,24.4-30.7,24.4c-8.4,0-16.8-2-21.6-4.9l4-16.8c3.8,2.2,11.4,4.9,17.4,4.9
		c5.9,0,8.7-2,8.7-5.6c0-3.6-2.1-5.4-9.8-8.6c-14.4-6-18.8-14.4-18.8-22.1c0-14.1,11.2-24.8,28.8-24.8c7.8,0,14.4,1.9,18.9,4
		L144.2,768.1z"/>
	<path fill="#27AE60" d="M184.2,758.6c4.4-6.9,11.8-10.9,20.8-10.9c16.6,0,27.9,16,27.9,38.4c0,27.4-15.3,39.6-30,39.6
		c-7.6,0-13.3-3.4-16-7.6h-0.4v36H163V774c0-9.3-0.2-17.6-0.6-24.8h20.3l1.2,9.4h0.2V758.6z M186.4,794.1c0,7.6,4.2,13.2,10.2,13.2
		c8.2,0,12.4-8.7,12.4-20.4c0-12.6-4.2-20.2-12.1-20.2c-5.4,0-10.6,4.9-10.6,12.9V794.1z"/>
	<path fill="#27AE60" d="M303.8,821.5c-6.9,2.8-15.9,4.1-24.8,4.1c-23.6,0-36.9-14.1-36.9-37.6c0-21.4,12.6-40.2,34.9-40.2
		c17.9,0,30.6,12,30.6,37.4c0,3.6-0.1,7.3-0.7,9.9h-42.4c0.6,8.9,8.6,13.1,18.2,13.1c6.8,0,12.7-1.2,18-2.9L303.8,821.5z
		 M286.1,778.9c0-6.7-2.1-15.1-10.2-15.1c-8,0-11.1,8.8-11.4,15.1H286.1z"/>
	<path fill="#27AE60" d="M378.3,821.5c-6.9,2.8-15.9,4.1-24.8,4.1c-23.6,0-36.9-14.1-36.9-37.6c0-21.4,12.6-40.2,34.9-40.2
		c17.9,0,30.6,12,30.6,37.4c0,3.6-0.1,7.3-0.7,9.9H339c0.6,8.9,8.6,13.1,18.2,13.1c6.8,0,12.7-1.2,18-2.9L378.3,821.5z M360.5,778.9
		c0-6.7-2.1-15.1-10.2-15.1c-8,0-11.1,8.8-11.4,15.1H360.5z"/>
	<path fill="#27AE60" d="M460.8,801.3c0,8.2,0.2,16.9,0.6,22.9h-20.6l-1.1-9.8h-0.4c-4,7.1-11.8,11.2-19.8,11.2
		c-17.2,0-28.4-16.6-28.4-38.7c0-25.4,13.9-39.3,29.4-39.3c8,0,13.8,3.2,16.2,7.8h0.4v-38.7h23.4v84.6H460.8z M437.2,779.8
		c0-10.4-6.1-13.4-10.1-13.4c-8.6,0-12.4,9.3-12.4,20.7c0,12.9,5.1,19.8,12.2,19.8c4.4,0,10.2-2.8,10.2-13.1v-13.9H437.2z"/>
	<path fill="#27AE60" d="M542.8,749.1c-0.2,5.9-0.7,12.9-0.7,23.2v42.1c0,18.8-4.4,41.1-38.9,41.1c-8.8,0-17.4-1.6-23.8-4.7
		l4.2-17.9c4.4,2.2,11.2,4.4,18.7,4.4c10.2,0,16.6-6.1,16.6-18v-4.1h-0.2c-3.8,5.3-10,8.2-16.9,8.2c-18,0-28.2-16.7-28.2-36.4
		c0-24.1,13.6-39.4,30.4-39.4c8,0,13.9,3.6,17.3,9.6h0.2l1.1-8.1L542.8,749.1L542.8,749.1z M518.5,778.6c0-8.4-4.6-12.4-9.4-12.4
		c-7.3,0-12.1,8.2-12.1,20.6c0,11.8,4.6,19.2,11.9,19.2c5.1,0,9.8-3.3,9.8-12.8v-14.6H518.5z"/>
	<path fill="#27AE60" d="M624.3,786.3c0,29.2-18.8,39.4-35.2,39.4c-20.8,0-35.1-14.4-35.1-38.6c0-25.2,15.2-39.4,35.9-39.4
		C611.4,747.7,624.3,763.7,624.3,786.3z M589.4,764.8c-8.8,0-11.6,11.4-11.6,21.9c0,12.6,3.6,22,11.6,22c7.6,0,11.2-10,11.2-22
		C600.5,775.6,597.4,764.8,589.4,764.8z"/>
	<path fill="#27AE60" d="M703.4,749.1c-0.2,5.9-0.7,12.9-0.7,23.2v42.1c0,18.8-4.4,41.1-38.9,41.1c-8.8,0-17.4-1.6-23.8-4.7
		l4.2-17.9c4.4,2.2,11.2,4.4,18.7,4.4c10.2,0,16.6-6.1,16.6-18v-4.1h-0.2c-3.8,5.3-10,8.2-16.9,8.2c-18,0-28.2-16.7-28.2-36.4
		c0-24.1,13.6-39.4,30.4-39.4c8,0,13.9,3.6,17.3,9.6h0.2l1.1-8.1L703.4,749.1L703.4,749.1z M679.2,778.6c0-8.4-4.6-12.4-9.4-12.4
		c-7.3,0-12.1,8.2-12.1,20.6c0,11.8,4.6,19.2,11.9,19.2c5.1,0,9.8-3.3,9.8-12.8v-14.6H679.2z"/>
	<path fill="#27AE60" d="M785,786.3c0,29.2-18.8,39.4-35.2,39.4c-20.8,0-35.1-14.4-35.1-38.6c0-25.2,15.2-39.4,35.9-39.4
		C772.1,747.7,785,763.7,785,786.3z M750.1,764.8c-8.8,0-11.6,11.4-11.6,21.9c0,12.6,3.6,22,11.6,22c7.6,0,11.2-10,11.2-22
		C761.2,775.6,758.1,764.8,750.1,764.8z"/>
</g>
<path id="location-2-icon" fill="#27AE60" d="M0.9,726.6c20.2,0,36.6,16.4,36.6,36.6c0,23.2-24.2,61.2-36.6,82
	c-20.8-35.1-36.6-61.9-36.6-82C-35.7,742.9-19.2,726.6,0.9,726.6 M0.9,710.4c-29.1,0-52.8,23.7-52.8,52.8c0,29.1,23.1,63,52.8,113.8
	c29.7-50.8,52.8-84.7,52.8-113.8C53.7,734,30,710.4,0.9,710.4L0.9,710.4z M0.9,744.3c-10.1,0-18.3,8.2-18.3,18.3
	c0,10.1,8.2,18.3,18.3,18.3s18.3-8.2,18.3-18.3C19.2,752.5,11,744.3,0.9,744.3L0.9,744.3z"/>
</svg>
